HIERARCHY
ROOT Hips
{
	OFFSET 0.000000 100.481300 0.000000
	CHANNELS 6 Xposition Yposition Zposition Xrotation Yrotation Zrotation 
	JOINT Spine
	{
		OFFSET -0.279200 12.230698 -2.892100
		CHANNELS 3 Xrotation Yrotation Zrotation
		JOINT Spine1
		{
			OFFSET -0.232667 10.192268 -1.242267
			CHANNELS 3 Xrotation Yrotation Zrotation
			JOINT Spine1_split
			{
				OFFSET -0.232667 10.192268 -1.242267
				CHANNELS 3 Xrotation Yrotation Zrotation
				JOINT Spine2
				{
					OFFSET -0.232667 10.192268 -1.242267
					CHANNELS 3 Xrotation Yrotation Zrotation
					JOINT Neck
					{
						OFFSET -0.418800 17.814194 8.416900
						CHANNELS 3 Xrotation Yrotation Zrotation
						JOINT Head
						{
							OFFSET 0.000000 7.031097 3.806800
							CHANNELS 3 Xrotation Yrotation Zrotation
							JOINT HeadTop_End
							{
								OFFSET 0.000000 24.646606 12.978600
								CHANNELS 3 Xrotation Yrotation Zrotation
								End Site
								{
									OFFSET 0.000000 0.000000 0.000000
								}
							}
						}
					}
					JOINT LeftShoulder
					{
						OFFSET 8.476499 7.247704 -3.868750
						CHANNELS 3 Xrotation Yrotation Zrotation
						JOINT LeftShoulder_split
						{
							OFFSET 8.476499 7.247704 -3.868750
							CHANNELS 3 Xrotation Yrotation Zrotation
							JOINT LeftArm
							{
								OFFSET 9.308998 -2.777710 0.208600
								CHANNELS 3 Xrotation Yrotation Zrotation
								JOINT LeftForeArm
								{
									OFFSET 29.972298 0.000000 0.000000
									CHANNELS 3 Xrotation Yrotation Zrotation
									JOINT LeftHand
									{
										OFFSET 26.026505 0.000000 0.000000
										CHANNELS 3 Xrotation Yrotation Zrotation
										JOINT LeftHandThumb1
										{
											OFFSET 12.240501 -7.147949 9.207150
											CHANNELS 3 Xrotation Yrotation Zrotation
											JOINT LeftHandThumb2
											{
												OFFSET 4.138618 -2.389435 2.389433
												CHANNELS 3 Xrotation Yrotation Zrotation
												JOINT LeftHandThumb3
												{
													OFFSET 2.726913 -1.574387 1.574386
													CHANNELS 3 Xrotation Yrotation Zrotation
													JOINT LeftHandThumb4
													{
														OFFSET 3.941010 -2.275345 2.275342
														CHANNELS 3 Xrotation Yrotation Zrotation
														End Site
														{
															OFFSET 0.000000 0.000000 0.000000
														}
													}
												}
											}
										}
										JOINT LeftHandIndex1
										{
											OFFSET 24.424698 -1.985611 5.953459
											CHANNELS 3 Xrotation Yrotation Zrotation
											JOINT LeftHandIndex2
											{
												OFFSET 6.426697 0.000000 0.000000
												CHANNELS 3 Xrotation Yrotation Zrotation
												JOINT LeftHandIndex3
												{
													OFFSET 5.337898 0.000000 0.000000
													CHANNELS 3 Xrotation Yrotation Zrotation
													JOINT LeftHandIndex4
													{
														OFFSET 4.409401 0.000000 0.000000
														CHANNELS 3 Xrotation Yrotation Zrotation
														End Site
														{
															OFFSET 0.000000 0.000000 0.000000
														}
													}
												}
											}
										}
										JOINT LeftHandMiddle1
										{
											OFFSET 23.810104 0.000000 0.000000
											CHANNELS 3 Xrotation Yrotation Zrotation
											JOINT LeftHandMiddle2
											{
												OFFSET 7.176498 0.000000 0.000000
												CHANNELS 3 Xrotation Yrotation Zrotation
												JOINT LeftHandMiddle3
												{
													OFFSET 6.774902 0.000000 0.000000
													CHANNELS 3 Xrotation Yrotation Zrotation
													JOINT LeftHandMiddle4
													{
														OFFSET 5.403328 0.000000 0.000000
														CHANNELS 3 Xrotation Yrotation Zrotation
														End Site
														{
															OFFSET 0.000000 0.000000 0.000000
														}
													}
												}
											}
										}
										JOINT LeftHandRing1
										{
											OFFSET 22.908401 -0.839279 -6.020567
											CHANNELS 3 Xrotation Yrotation Zrotation
											JOINT LeftHandRing2
											{
												OFFSET 6.337502 0.000000 0.000000
												CHANNELS 3 Xrotation Yrotation Zrotation
												JOINT LeftHandRing3
												{
													OFFSET 5.779297 0.000000 0.000000
													CHANNELS 3 Xrotation Yrotation Zrotation
													JOINT LeftHandRing4
													{
														OFFSET 4.965698 0.000000 0.000000
														CHANNELS 3 Xrotation Yrotation Zrotation
														End Site
														{
															OFFSET 0.000000 0.000000 0.000000
														}
													}
												}
											}
										}
										JOINT LeftHandPinky1
										{
											OFFSET 20.037003 -1.530319 -10.950146
											CHANNELS 3 Xrotation Yrotation Zrotation
											JOINT LeftHandPinky2
											{
												OFFSET 5.254700 0.000000 0.000000
												CHANNELS 3 Xrotation Yrotation Zrotation
												JOINT LeftHandPinky3
												{
													OFFSET 4.810204 0.000000 0.000000
													CHANNELS 3 Xrotation Yrotation Zrotation
													JOINT LeftHandPinky4
													{
														OFFSET 3.647202 0.000000 0.000000
														CHANNELS 3 Xrotation Yrotation Zrotation
														End Site
														{
															OFFSET 0.000000 0.000000 0.000000
														}
													}
												}
											}
										}
									}
								}
							}
						}
					}
					JOINT RightShoulder
					{
						OFFSET -7.570500 7.247704 -3.868750
						CHANNELS 3 Xrotation Yrotation Zrotation
						JOINT RightShoulder_split
						{
							OFFSET -7.570500 7.247704 -3.868750
							CHANNELS 3 Xrotation Yrotation Zrotation
							JOINT RightArm
							{
								OFFSET -9.308998 -2.777710 0.208500
								CHANNELS 3 Xrotation Yrotation Zrotation
								JOINT RightForeArm
								{
									OFFSET -29.972300 0.000000 0.000000
									CHANNELS 3 Xrotation Yrotation Zrotation
									JOINT RightHand
									{
										OFFSET -26.026505 0.000000 0.000000
										CHANNELS 3 Xrotation Yrotation Zrotation
										JOINT RightHandThumb1
										{
											OFFSET -12.240601 -7.148026 9.207092
											CHANNELS 3 Xrotation Yrotation Zrotation
											JOINT RightHandThumb2
											{
												OFFSET -4.138618 -2.389435 2.389433
												CHANNELS 3 Xrotation Yrotation Zrotation
												JOINT RightHandThumb3
												{
													OFFSET -2.726974 -1.574417 1.574421
													CHANNELS 3 Xrotation Yrotation Zrotation
													JOINT RightHandThumb4
													{
														OFFSET -3.941010 -2.275345 2.275343
														CHANNELS 3 Xrotation Yrotation Zrotation
														End Site
														{
															OFFSET 0.000000 0.000000 0.000000
														}
													}
												}
											}
										}
										JOINT RightHandIndex1
										{
											OFFSET -24.424698 -1.985657 5.953444
											CHANNELS 3 Xrotation Yrotation Zrotation
											JOINT RightHandIndex2
											{
												OFFSET -6.426697 0.000000 0.000000
												CHANNELS 3 Xrotation Yrotation Zrotation
												JOINT RightHandIndex3
												{
													OFFSET -5.337898 0.000000 0.000000
													CHANNELS 3 Xrotation Yrotation Zrotation
													JOINT RightHandIndex4
													{
														OFFSET -4.409401 0.000000 0.000000
														CHANNELS 3 Xrotation Yrotation Zrotation
														End Site
														{
															OFFSET 0.000000 0.000000 0.000000
														}
													}
												}
											}
										}
										JOINT RightHandMiddle1
										{
											OFFSET -23.810097 0.000000 0.000000
											CHANNELS 3 Xrotation Yrotation Zrotation
											JOINT RightHandMiddle2
											{
												OFFSET -7.176498 0.000000 0.000000
												CHANNELS 3 Xrotation Yrotation Zrotation
												JOINT RightHandMiddle3
												{
													OFFSET -6.774902 0.000000 0.000000
													CHANNELS 3 Xrotation Yrotation Zrotation
													JOINT RightHandMiddle4
													{
														OFFSET -5.403328 0.000000 0.000000
														CHANNELS 3 Xrotation Yrotation Zrotation
														End Site
														{
															OFFSET 0.000000 0.000000 0.000000
														}
													}
												}
											}
										}
										JOINT RightHandRing1
										{
											OFFSET -22.908302 -0.839325 -6.020576
											CHANNELS 3 Xrotation Yrotation Zrotation
											JOINT RightHandRing2
											{
												OFFSET -6.337502 0.000000 0.000000
												CHANNELS 3 Xrotation Yrotation Zrotation
												JOINT RightHandRing3
												{
													OFFSET -5.779297 0.000000 0.000000
													CHANNELS 3 Xrotation Yrotation Zrotation
													JOINT RightHandRing4
													{
														OFFSET -4.965698 0.000000 0.000000
														CHANNELS 3 Xrotation Yrotation Zrotation
														End Site
														{
															OFFSET 0.000000 0.000000 0.000000
														}
													}
												}
											}
										}
										JOINT RightHandPinky1
										{
											OFFSET -20.037003 -1.530334 -10.950259
											CHANNELS 3 Xrotation Yrotation Zrotation
											JOINT RightHandPinky2
											{
												OFFSET -5.254700 0.000000 0.000000
												CHANNELS 3 Xrotation Yrotation Zrotation
												JOINT RightHandPinky3
												{
													OFFSET -4.810204 0.000000 0.000000
													CHANNELS 3 Xrotation Yrotation Zrotation
													JOINT RightHandPinky4
													{
														OFFSET -3.647202 0.000000 0.000000
														CHANNELS 3 Xrotation Yrotation Zrotation
														End Site
														{
															OFFSET 0.000000 0.000000 0.000000
														}
													}
												}
											}
										}
									}
								}
							}
						}
					}
				}
			}
		}
	}
	JOINT LeftUpLeg
	{
		OFFSET 15.427100 -6.655098 0.678600
		CHANNELS 3 Xrotation Yrotation Zrotation
		JOINT LeftLeg
		{
			OFFSET 4.081073 -39.591068 13.024000
			CHANNELS 3 Xrotation Yrotation Zrotation
			JOINT LeftFoot
			{
				OFFSET -4.081074 -37.707932 -15.979700
				CHANNELS 3 Xrotation Yrotation Zrotation
				JOINT LeftToeBase
				{
					OFFSET 5.346399 -15.068900 20.645000
					CHANNELS 3 Xrotation Yrotation Zrotation
					JOINT LeftToe_End
					{
						OFFSET 2.754700 0.931300 11.300900
						CHANNELS 3 Xrotation Yrotation Zrotation
						End Site
						{
							OFFSET 0.000000 0.000000 0.000000
						}
					}
				}
			}
		}
	}
	JOINT RightUpLeg
	{
		OFFSET -15.569500 -6.655098 0.678600
		CHANNELS 3 Xrotation Yrotation Zrotation
		JOINT RightLeg
		{
			OFFSET -4.081825 -39.591045 13.023800
			CHANNELS 3 Xrotation Yrotation Zrotation
			JOINT RightFoot
			{
				OFFSET 4.081824 -37.707954 -15.979600
				CHANNELS 3 Xrotation Yrotation Zrotation
				JOINT RightToeBase
				{
					OFFSET -5.346400 -15.068900 20.645000
					CHANNELS 3 Xrotation Yrotation Zrotation
					JOINT RightToe_End
					{
						OFFSET -2.754700 0.931300 11.300900
						CHANNELS 3 Xrotation Yrotation Zrotation
						End Site
						{
							OFFSET 0.000000 0.000000 0.000000
						}
					}
				}
			}
		}
	}
}
MOTION
Frames: 4
Frame Time: 0.016667
-1.657808 12.804535 9.556702 -87.567410 -3.801700 -1.783089 0.600609 1.775327 -0.295711 -2.712469 0.550123 0.069934 0.000000 0.000000 0.000000 -2.709987 0.572754 0.085569 3.954682 -0.162521 0.200793 7.663472 -2.706721 7.904899 -0.000000 -0.000000 0.000000 1.279307 -13.498954 -1.883383 0.000000 0.000000 0.000000 20.483963 -1.014535 -70.993471 0.000015 -137.491489 0.000020 -17.619159 18.840500 -43.362812 -7.220063 -16.942327 15.004578 7.558165 31.509544 -3.040772 -10.327329 16.515336 14.878075 0.000001 0.000001 -0.000000 -0.024118 4.029260 2.883326 0.551245 2.482838 -25.032239 0.198058 -1.511910 14.925353 -0.000000 -0.000000 0.000000 -0.237390 3.164806 12.085516 0.825493 3.000282 -30.761089 0.172874 -1.414088 13.939008 0.000000 -0.000000 0.000000 -0.227154 2.636217 15.396442 0.647040 2.678217 -27.159655 0.198056 -1.511910 14.925345 0.000000 -0.000000 -0.000002 -1.716319 2.384079 10.103019 0.425830 2.194584 -21.959562 0.034579 0.636268 -6.221377 0.000000 -0.000000 -0.000000 0.515808 6.973516 0.064737 0.000000 0.000000 0.000000 15.875313 6.901691 66.846488 -0.000001 133.088025 -0.000007 -16.503238 -12.599699 49.917406 -19.372336 9.812715 -17.628153 16.805785 -33.149104 6.482054 3.930028 -4.675016 -18.270495 -0.000004 -0.000001 0.000000 -0.578708 -1.290234 19.415308 -0.000001 0.000000 0.000007 0.000374 -0.059106 0.725572 0.000001 0.000000 0.000000 0.900192 -7.884226 9.062698 0.294489 -1.631363 20.463680 0.051636 -0.692363 8.531054 -0.000000 -0.000000 -0.000000 0.740063 -10.091163 4.911396 1.354382 -3.285245 44.799966 0.134873 1.113828 -13.807952 0.000000 0.000003 -0.000002 0.507047 -5.672360 8.465994 1.111094 -3.020975 40.379064 0.158026 1.204123 -14.952698 -0.000000 0.000000 -0.000000 -22.265334 15.095072 -8.112151 21.621674 -5.019747 -8.843311 2.267046 7.413429 8.230138 -0.279195 0.000000 -0.000003 0.000001 0.000000 0.000001 -5.625649 -10.446891 1.418583 5.720815 -6.510687 7.317511 9.679975 -5.199041 26.025766 -1.652949 -0.000013 -0.000003 -0.000001 -0.000002 0.000002 
-1.657729 12.803513 9.557945 -87.571775 -3.802479 -1.784397 0.607198 1.784626 -0.291313 -2.713533 0.552117 0.068063 0.000000 0.000000 0.000000 -2.711051 0.574704 0.083783 3.956770 -0.164480 0.200224 7.651823 -2.723803 7.913645 -0.000001 0.000001 -0.000000 1.279897 -13.506574 -1.882613 0.000000 0.000000 0.000000 20.471318 -1.017567 -70.987153 0.000002 -137.488197 -0.000002 -17.622332 18.842192 -43.369536 -7.219524 -16.942863 15.007529 7.558164 31.509548 -3.040775 -10.327326 16.515338 14.878076 -0.000000 -0.000000 0.000001 -0.024115 4.029259 2.883327 0.551027 2.482375 -25.027254 0.198057 -1.511910 14.925350 0.000001 0.000000 -0.000001 -0.237390 3.164807 12.085506 0.825494 3.000281 -30.761082 0.173175 -1.415305 13.951236 0.000001 -0.000000 0.000001 -0.227158 2.636215 15.396438 0.646792 2.677726 -27.154274 0.198056 -1.511909 14.925358 0.000000 -0.000000 0.000000 -1.716322 2.384079 10.103027 0.425640 2.194109 -21.954528 0.034577 0.636268 -6.221379 0.000000 0.000000 -0.000000 0.515566 6.970728 0.064773 0.000000 0.000000 0.000000 15.874017 6.887362 66.861159 -0.000000 133.090416 -0.000007 -16.498016 -12.596060 49.928249 -19.372336 9.812714 -17.628153 16.805786 -33.149107 6.482051 3.930030 -4.675018 -18.270493 -0.000000 0.000001 0.000001 -0.578708 -1.290234 19.415303 -0.000002 -0.000000 0.000007 0.000371 -0.059106 0.725570 0.000001 0.000000 0.000000 0.900192 -7.884227 9.062699 0.294487 -1.631363 20.463680 0.051638 -0.692363 8.531056 -0.000000 0.000000 -0.000000 0.740063 -10.091163 4.911396 1.354383 -3.285247 44.799966 0.134873 1.113828 -13.807951 -0.000000 -0.000001 0.000000 0.507046 -5.672361 8.465993 1.111097 -3.020975 40.379064 0.158026 1.204121 -14.952696 -0.000001 0.000001 -0.000002 -22.262845 15.093956 -8.110330 21.622922 -5.019783 -8.843784 2.272207 7.408048 8.220034 -0.292421 0.000005 -0.000001 -0.000000 -0.000000 0.000000 -5.623543 -10.448528 1.418586 5.726819 -6.521153 7.314112 9.681298 -5.203764 26.024552 -1.649922 0.000002 -0.000015 -0.000000 0.000001 -0.000000 
-1.657518 12.802513 9.559303 -87.572055 -3.801847 -1.786637 0.609566 1.790888 -0.285489 -2.714828 0.553227 0.066521 0.000000 0.000000 0.000000 -2.712320 0.575769 0.082299 3.958957 -0.166341 0.200116 7.643629 -2.740681 7.924389 -0.000000 0.000000 -0.000000 1.280318 -13.511005 -1.881052 0.000000 0.000000 0.000000 20.463067 -1.020423 -70.982468 0.000003 -137.485096 0.000002 -17.625462 18.842373 -43.375492 -7.218006 -16.944352 15.015874 7.558163 31.509544 -3.040775 -10.327328 16.515339 14.878080 0.000001 -0.000002 -0.000003 -0.024115 4.029260 2.883318 0.550413 2.481057 -25.013029 0.198056 -1.511911 14.925345 -0.000001 -0.000000 0.000001 -0.237392 3.164807 12.085510 0.825493 3.000282 -30.761085 0.174033 -1.418750 13.985903 0.000000 -0.000000 -0.000000 -0.227155 2.636215 15.396437 0.646075 2.676333 -27.138966 0.198054 -1.511909 14.925352 0.000000 -0.000000 -0.000002 -1.716319 2.384078 10.103019 0.425094 2.192754 -21.940275 0.034577 0.636268 -6.221379 -0.000000 0.000000 -0.000000 0.515698 6.970291 0.064802 0.000000 0.000000 0.000000 15.871046 6.874130 66.875256 0.000022 133.093722 -0.000023 -16.491422 -12.597525 49.941735 -19.372336 9.812715 -17.628151 16.805786 -33.149104 6.482051 3.930029 -4.675017 -18.270496 -0.000002 0.000000 0.000005 -0.578707 -1.290234 19.415301 -0.000001 -0.000000 0.000008 0.000372 -0.059107 0.725571 0.000000 0.000000 -0.000001 0.900191 -7.884227 9.062698 0.294490 -1.631363 20.463680 0.051638 -0.692363 8.531057 -0.000001 0.000002 -0.000000 0.740065 -10.091162 4.911395 1.354384 -3.285245 44.799962 0.134874 1.113831 -13.807953 0.000001 -0.000002 0.000001 0.507046 -5.672360 8.465993 1.111095 -3.020973 40.379064 0.158025 1.204122 -14.952696 0.000000 0.000000 -0.000002 -22.265452 15.093955 -8.107428 21.625168 -5.020959 -8.844822 2.277369 7.406415 8.214018 -0.292806 -0.000001 0.000008 0.000000 -0.000001 0.000002 -5.625026 -10.450670 1.418894 5.729111 -6.521669 7.314257 9.681681 -5.207589 26.020644 -1.646727 -0.000002 -0.000005 -0.000001 0.000001 -0.000002 
-1.657326 12.801537 9.560822 -87.569924 -3.799386 -1.788801 0.609536 1.794557 -0.279380 -2.716214 0.553641 0.065173 0.000000 0.000000 0.000000 -2.713708 0.576141 0.080983 3.961075 -0.168044 0.200408 7.637750 -2.756497 7.936148 0.000000 0.000000 -0.000000 1.280697 -13.512916 -1.878506 0.000000 0.000000 0.000000 20.458056 -1.023368 -70.979408 0.000014 -137.481777 0.000019 -17.628587 18.841804 -43.381277 -7.215874 -16.946461 15.027594 7.558163 31.509548 -3.040773 -10.327327 16.515338 14.878078 -0.000000 -0.000000 -0.000001 -0.024118 4.029259 2.883330 0.549553 2.479206 -24.993086 0.198056 -1.511910 14.925358 0.000000 -0.000000 0.000000 -0.237391 3.164804 12.085517 0.825492 3.000285 -30.761085 0.175241 -1.423584 14.034553 -0.000000 -0.000000 0.000000 -0.227155 2.636215 15.396430 0.645073 2.674380 -27.117489 0.198056 -1.511909 14.925357 0.000000 0.000000 -0.000000 -1.716321 2.384077 10.103025 0.424327 2.190854 -21.920254 0.034580 0.636268 -6.221379 0.000000 0.000000 -0.000000 0.516036 6.971515 0.064825 0.000000 0.000000 0.000000 15.867206 6.862410 66.888869 -0.000022 133.097164 0.000014 -16.483946 -12.601883 49.956441 -19.372339 9.812715 -17.628153 16.805786 -33.149104 6.482054 3.930026 -4.675014 -18.270496 -0.000000 0.000003 0.000003 -0.578705 -1.290233 19.415306 0.000000 -0.000000 0.000008 0.000373 -0.059106 0.725571 0.000001 -0.000000 -0.000000 0.900193 -7.884227 9.062698 0.294487 -1.631364 20.463680 0.051638 -0.692364 8.531057 -0.000002 -0.000000 -0.000002 0.740066 -10.091164 4.911396 1.354383 -3.285246 44.799962 0.134874 1.113831 -13.807950 0.000001 -0.000000 0.000000 0.507047 -5.672361 8.465993 1.111097 -3.020975 40.379061 0.158025 1.204122 -14.952701 -0.000000 -0.000000 0.000001 -22.271010 15.094908 -8.105053 21.629006 -5.021328 -8.845087 2.281463 7.406779 8.213135 -0.288147 -0.000001 -0.000000 -0.000000 0.000000 0.000001 -5.628649 -10.453122 1.419287 5.729445 -6.516111 7.316651 9.681149 -5.210898 26.015077 -1.643312 0.000010 -0.000004 -0.000000 0.000000 -0.000002 
